HIERARCHY
ROOT Hips
{
	OFFSET 0.000000 0.000000 0.000000
	CHANNELS 6 Xposition Yposition Zposition Zrotation Yrotation Xrotation 
	JOINT LeftUpLeg_virtual
	{
		OFFSET 0.000000 0.000000 0.000000
		CHANNELS 3 Zrotation Yrotation Xrotation
		JOINT LeftUpLeg
		{
			OFFSET 10.205400 -3.823500 0.155100
			CHANNELS 3 Zrotation Yrotation Xrotation
			JOINT LeftLeg
			{
				OFFSET 0.708757 -12.982077 0.567790
				CHANNELS 3 Zrotation Yrotation Xrotation
				JOINT LeftFoot
				{
					OFFSET -0.708756 -10.717838 -2.184338
					CHANNELS 3 Zrotation Yrotation Xrotation
					JOINT LeftToeBase
					{
						OFFSET 0.108149 -7.191104 7.560241
						CHANNELS 3 Zrotation Yrotation Xrotation
						End Site
						{
							OFFSET 0.000000 0.000000 0.000000
						}
					}
				}
			}
		}
	}
	JOINT RightUpLeg_virtual
	{
		OFFSET 0.000000 0.000000 0.000000
		CHANNELS 3 Zrotation Yrotation Xrotation
		JOINT RightUpLeg
		{
			OFFSET -10.205400 -3.823500 0.005500
			CHANNELS 3 Zrotation Yrotation Xrotation
			JOINT RightLeg
			{
				OFFSET -0.708756 -12.982134 0.610632
				CHANNELS 3 Zrotation Yrotation Xrotation
				JOINT RightFoot
				{
					OFFSET 0.708754 -10.717769 -1.945823
					CHANNELS 3 Zrotation Yrotation Xrotation
					JOINT RightToeBase
					{
						OFFSET -0.108140 -7.191069 7.372968
						CHANNELS 3 Zrotation Yrotation Xrotation
						End Site
						{
							OFFSET 0.000000 0.000000 0.000000
						}
					}
				}
			}
		}
	}
	JOINT Spine_virtual
	{
		OFFSET 0.000000 0.000000 0.000000
		CHANNELS 3 Zrotation Yrotation Xrotation
		JOINT Spine
		{
			OFFSET 0.000000 6.876099 0.125700
			CHANNELS 3 Zrotation Yrotation Xrotation
			JOINT Spine1
			{
				OFFSET 0.000000 8.022060 0.146608
				CHANNELS 3 Zrotation Yrotation Xrotation
				JOINT Spine2
				{
					OFFSET 0.000000 9.168068 0.167552
					CHANNELS 3 Zrotation Yrotation Xrotation
					JOINT Neck_virtual
					{
						OFFSET 0.000000 0.000000 0.000000
						CHANNELS 3 Zrotation Yrotation Xrotation
						JOINT Neck
						{
							OFFSET 0.000000 10.314075 0.188496
							CHANNELS 3 Zrotation Yrotation Xrotation
							JOINT Head
							{
								OFFSET 0.000000 7.643700 -2.377400
								CHANNELS 3 Zrotation Yrotation Xrotation
								End Site
								{
									OFFSET 0.000000 0.000000 0.000000
								}
							}
						}
					}
					JOINT LeftShoulder_virtual
					{
						OFFSET 0.000000 0.000000 0.000000
						CHANNELS 3 Zrotation Yrotation Xrotation
						JOINT LeftShoulder
						{
							OFFSET 4.392200 8.824978 0.174984
							CHANNELS 3 Zrotation Yrotation Xrotation
							JOINT LeftArm
							{
								OFFSET 8.771219 -2.981674 -0.026999
								CHANNELS 3 Zrotation Yrotation Xrotation
								JOINT LeftForeArm
								{
									OFFSET 8.512804 0.000000 -0.000000
									CHANNELS 3 Zrotation Yrotation Xrotation
									JOINT LeftHand
									{
										OFFSET 18.484802 0.000000 -0.000000
										CHANNELS 3 Zrotation Yrotation Xrotation
										End Site
										{
											OFFSET 0.000000 0.000000 0.000000
										}
									}
								}
							}
						}
					}
					JOINT RightShoulder_virtual
					{
						OFFSET 0.000000 0.000000 0.000000
						CHANNELS 3 Zrotation Yrotation Xrotation
						JOINT RightShoulder
						{
							OFFSET -4.392200 8.824993 0.141379
							CHANNELS 3 Zrotation Yrotation Xrotation
							JOINT RightArm
							{
								OFFSET -8.771282 -2.981682 -0.094208
								CHANNELS 3 Zrotation Yrotation Xrotation
								JOINT RightForeArm
								{
									OFFSET -8.494598 0.000000 0.000000
									CHANNELS 3 Zrotation Yrotation Xrotation
									JOINT RightHand
									{
										OFFSET -18.483803 0.000000 0.000001
										CHANNELS 3 Zrotation Yrotation Xrotation
										End Site
										{
											OFFSET 0.000000 0.000000 0.000000
										}
									}
								}
							}
						}
					}
				}
			}
		}
	}
}
MOTION
Frames: 13
Frame Time: 0.033333
7.893687 34.228004 9.405957 -179.782204 1.171687 179.644179 -1.204572 -2.578628 8.038022 -9.609174 0.128273 -29.298527 7.125409 5.088818 13.058332 -1.602022 1.464650 10.007476 0.000000 0.000000 0.000000 4.880209 -2.506142 7.119461 3.350919 12.145890 -25.678303 -5.373577 5.215545 16.847575 6.551514 1.466074 4.835194 0.000000 0.000000 0.000000 2.185157 0.099821 -2.158435 -0.475309 -2.940893 -12.367728 -1.208098 -2.347883 7.583114 -0.001729 -0.081164 -0.064396 -1.813782 0.215378 9.716704 -1.387770 0.976075 18.572625 0.000000 0.000000 0.000000 -0.286238 0.842033 7.119902 -18.629069 -9.631534 0.561541 -48.751483 21.175868 14.789091 -0.604300 -35.104953 3.206175 0.000000 0.000000 0.000000 -4.143808 1.763088 6.513676 24.258230 5.192806 2.959013 46.430909 -22.375570 16.080842 -6.658554 32.167705 -3.703502 0.000000 0.000000 0.000000 
7.915181 34.212124 9.355226 -179.694368 1.292121 179.520922 -1.476481 -2.591371 7.858488 -9.376159 0.242024 -29.371367 7.175449 4.456821 12.871203 -2.005187 1.172945 10.067503 0.000000 0.000000 0.000000 4.983733 -2.626654 7.008660 3.286032 12.109498 -25.703504 -5.474340 5.407370 17.010916 6.450960 1.404178 5.219167 0.000000 0.000000 0.000000 2.271571 0.125870 -2.135853 -0.500958 -2.895664 -12.270789 -1.226710 -2.395283 7.563821 0.001289 -0.102445 -0.131479 -1.840220 0.191925 9.820455 -1.416259 0.992047 18.683752 0.000000 0.000000 0.000000 -0.296951 0.760273 7.090046 -18.688123 -9.571268 0.562667 -48.784186 21.049683 14.912454 -0.654406 -35.229091 3.237634 0.000000 0.000000 0.000000 -4.194828 1.737661 6.578407 24.189393 5.312558 2.912242 46.418543 -22.316803 16.203710 -6.636546 32.286786 -3.646640 0.000000 0.000000 0.000000 
7.926488 34.207684 9.298135 -179.701936 1.519976 179.524337 -1.379219 -2.576441 7.764928 -9.368241 0.105410 -29.217531 7.312083 4.662694 12.945982 -2.050435 1.179884 10.137161 0.000000 0.000000 0.000000 4.930553 -2.522420 6.928149 3.418918 12.124301 -25.567131 -5.459392 5.261304 17.144241 6.511259 1.388127 5.208122 0.000000 0.000000 0.000000 2.290618 0.091743 -2.198381 -0.581389 -2.831440 -12.294749 -1.263983 -2.417675 7.499279 -0.019947 -0.102613 -0.111156 -1.883507 0.187392 9.869193 -1.420450 0.973011 18.874135 0.000000 0.000000 0.000000 -0.328520 0.829295 7.197300 -18.743562 -9.578737 0.523845 -48.668813 20.851203 14.867133 -0.751225 -35.505697 3.314729 0.000000 0.000000 0.000000 -4.223538 1.754574 6.608928 24.136032 5.394542 2.957210 46.315936 -22.285820 16.569286 -6.706693 32.622787 -3.720325 0.000000 0.000000 0.000000 
7.927748 34.212276 9.227256 -179.722973 1.731544 179.558939 -1.306584 -2.544985 7.698671 -9.356911 -0.023977 -29.101244 7.414200 4.852239 13.007300 -2.052327 1.198333 10.181317 0.000000 0.000000 0.000000 4.871670 -2.383515 6.834900 3.551094 12.098126 -25.361573 -5.443808 5.329406 17.215538 6.555973 1.309575 5.141007 0.000000 0.000000 0.000000 2.285323 0.172724 -2.288439 -0.674807 -2.797007 -12.403011 -1.296844 -2.473680 7.533797 -0.033836 -0.126652 -0.030916 -1.937209 0.146404 9.864991 -1.386836 0.928222 19.265194 0.000000 0.000000 0.000000 -0.332468 0.810887 7.105777 -18.744790 -9.464421 0.479838 -48.471062 20.641445 14.711288 -0.871806 -35.748370 3.363559 0.000000 0.000000 0.000000 -4.245565 1.708449 6.527843 24.089756 5.464442 3.069565 46.250162 -22.296847 16.973297 -6.810642 32.941432 -3.875891 0.000000 0.000000 0.000000 
7.923529 34.228214 9.154951 -179.747739 1.911613 179.594920 -1.332036 -2.482641 7.693374 -9.311659 -0.031500 -29.053651 7.467047 5.209691 13.079447 -2.166537 1.084859 10.183768 0.000000 0.000000 0.000000 4.820193 -2.295087 6.753767 3.638606 12.027077 -25.172973 -5.445937 5.452510 17.230373 6.567684 1.242416 5.099552 0.000000 0.000000 0.000000 2.265863 0.204887 -2.352162 -0.791783 -2.676352 -12.563040 -1.295279 -2.442713 7.566870 -0.030815 -0.049737 -0.008996 -1.901418 0.029039 9.916323 -1.237260 0.911411 19.733245 0.000000 0.000000 0.000000 -0.334833 0.650104 7.121176 -18.754617 -9.442776 0.402236 -48.284994 20.450503 14.563097 -1.026836 -35.839225 3.386349 0.000000 0.000000 0.000000 -4.267680 1.485009 6.496604 24.043471 5.442579 3.172156 46.190968 -22.429110 17.146915 -6.845264 33.138684 -3.961139 0.000000 0.000000 0.000000 
7.932925 34.243809 9.098049 -179.775674 2.061187 179.608212 -1.374781 -2.378452 7.720901 -9.237591 -0.039435 -29.005754 7.529662 5.365223 13.127401 -2.200001 0.965465 10.168019 0.000000 0.000000 0.000000 4.764114 -2.131760 6.728564 3.725913 11.915834 -24.950433 -5.408313 5.388866 17.084760 6.605962 1.247637 5.102970 0.000000 0.000000 0.000000 2.250345 0.238586 -2.433913 -0.924630 -2.688476 -12.670366 -1.307074 -2.537806 7.594094 -0.026985 -0.070684 -0.146677 -1.914065 -0.040538 10.120693 -1.036887 0.848225 20.293723 0.000000 0.000000 0.000000 -0.349171 0.549617 7.233304 -18.706066 -9.194872 0.355634 -48.178908 20.422105 14.218478 -1.244986 -35.788958 3.450365 0.000000 0.000000 0.000000 -4.253199 1.443545 6.680634 24.094143 5.557799 3.206203 46.145728 -22.459503 17.139919 -6.867876 33.135737 -4.032064 0.000000 0.000000 0.000000 
7.947073 34.248150 9.035783 -179.717508 2.053178 179.611231 -1.314201 -2.333335 7.703310 -9.191734 -0.102864 -28.962454 7.578790 5.508202 13.286548 -2.206142 0.806939 10.081385 0.000000 0.000000 0.000000 4.777125 -2.010052 6.692408 3.850693 11.830060 -24.690439 -5.426648 5.332242 17.069331 6.548442 1.248587 4.971767 0.000000 0.000000 0.000000 2.300339 0.116617 -2.549962 -1.013604 -2.633645 -12.688854 -1.272975 -2.566661 7.576408 -0.081248 -0.022126 -0.076538 -1.965377 -0.310325 10.158089 -0.761131 0.771951 20.868975 0.000000 0.000000 0.000000 -0.334509 0.451643 7.225882 -18.630425 -9.031432 0.393839 -48.263298 20.340291 13.990831 -1.310519 -35.641061 3.303072 0.000000 0.000000 0.000000 -4.222175 1.360934 6.721508 24.200366 5.671161 3.285316 46.162991 -22.418815 17.236365 -6.952005 33.025228 -4.195277 0.000000 0.000000 0.000000 
7.953556 34.232491 8.938070 -179.788078 1.946882 179.628047 -1.309406 -2.383846 7.645071 -9.228580 -0.217076 -28.917170 7.584751 5.627998 13.611602 -2.149272 0.654061 9.949718 0.000000 0.000000 0.000000 4.636548 -1.940887 6.604929 4.026686 11.804678 -24.492894 -5.474768 5.386897 17.464462 6.392234 1.246778 4.482923 0.000000 0.000000 0.000000 2.230774 0.221914 -2.762758 -1.162180 -2.717336 -12.613560 -1.316458 -2.698352 7.688653 -0.043439 -0.133466 -0.062589 -1.914476 -0.169323 10.307618 -0.375075 0.653132 21.458755 0.000000 0.000000 0.000000 -0.365626 0.470936 7.206220 -18.515483 -8.735330 0.281666 -48.462313 20.541884 13.598418 -1.503539 -35.737817 3.306345 0.000000 0.000000 0.000000 -4.252432 1.355746 6.783149 24.352164 5.739515 3.305508 46.209559 -22.366665 17.373501 -6.999054 33.051200 -4.303041 0.000000 0.000000 0.000000 
7.957815 34.190399 8.784845 -179.798187 1.838862 179.710610 -1.144880 -2.401699 7.615599 -9.368602 -0.369306 -28.937281 7.572194 5.861790 14.146131 -2.099681 0.487791 9.650367 0.000000 0.000000 0.000000 4.520444 -1.854021 6.407582 4.228341 11.786272 -24.356502 -5.507874 5.306820 18.360643 6.193066 1.303756 3.679731 0.000000 0.000000 0.000000 2.221224 0.187916 -3.008937 -1.252429 -2.717039 -12.492055 -1.357784 -2.700783 7.842030 -0.035714 -0.089356 -0.048034 -1.905830 -0.214903 10.567151 -0.024773 0.490610 21.893265 0.000000 0.000000 0.000000 -0.377826 0.413502 7.316946 -18.369768 -8.472423 0.240704 -48.725828 21.084324 13.259773 -1.562733 -36.192708 3.185592 0.000000 0.000000 0.000000 -4.233906 1.318862 6.879061 24.529048 5.569802 3.319611 46.227718 -22.408046 17.483947 -7.079608 33.474989 -4.325829 0.000000 0.000000 0.000000 
7.967265 34.132568 8.602963 -179.824770 1.756814 179.766904 -0.918000 -2.389324 7.734921 -9.552948 -0.464516 -29.048497 7.555356 6.055773 14.791649 -2.071552 0.353534 9.260687 0.000000 0.000000 0.000000 4.450832 -1.722750 6.402735 4.331764 11.710560 -24.477223 -5.461313 4.944863 19.579842 6.082573 1.514579 2.461863 0.000000 0.000000 0.000000 2.211959 0.022504 -3.121499 -1.327270 -2.678647 -12.293144 -1.391333 -2.633204 7.940840 -0.027222 -0.043368 0.000376 -1.926934 -0.185861 10.702731 0.314976 0.329844 22.071773 0.000000 0.000000 0.000000 -0.429243 0.479511 7.318543 -18.177944 -8.093102 0.260194 -48.957362 21.947266 12.941975 -1.578441 -37.074502 3.066442 0.000000 0.000000 0.000000 -4.258645 1.371583 6.916960 24.685412 5.262413 3.295942 46.298246 -22.808601 17.563171 -7.261977 34.215088 -4.520074 0.000000 0.000000 0.000000 
7.977468 34.084740 8.460599 -179.809962 1.529396 179.810549 -0.750323 -2.514192 7.920942 -9.749191 -0.404891 -29.274819 7.482752 5.963752 15.378313 -2.062446 0.288376 8.892030 0.000000 0.000000 0.000000 4.431063 -1.791472 6.582232 4.264831 11.634722 -24.787200 -5.389432 4.385789 20.541026 6.112318 1.807687 1.603285 0.000000 0.000000 0.000000 2.207611 -0.052950 -3.080388 -1.341172 -2.672296 -12.064213 -1.464397 -2.558224 8.057093 -0.005791 -0.039970 -0.067566 -1.914309 -0.136005 10.920977 0.580257 0.178196 21.918845 0.000000 0.000000 0.000000 -0.469882 0.536086 7.459420 -17.976467 -7.804377 0.305919 -48.983023 22.835249 12.751483 -1.582710 -38.222787 3.027360 0.000000 0.000000 0.000000 -4.306833 1.404625 7.049871 24.741563 4.801177 3.301420 46.451044 -23.386546 17.109470 -7.397097 35.165277 -4.666133 0.000000 0.000000 0.000000 
7.988767 34.067066 8.409127 -179.836613 1.314894 179.804839 -0.689214 -2.648988 8.164251 -9.896220 -0.116334 -29.536747 7.347256 5.654590 15.493669 -2.064267 0.343042 8.863135 0.000000 0.000000 0.000000 4.454544 -2.014576 6.820718 4.030649 11.543491 -25.175153 -5.310467 3.828348 21.034853 6.224944 2.071595 1.333067 0.000000 0.000000 0.000000 2.148709 -0.069603 -2.839831 -1.389193 -2.648787 -11.773376 -1.380782 -2.474575 8.106122 0.005202 -0.056067 -0.043461 -1.978284 -0.026920 10.924677 0.696258 0.036505 21.306831 0.000000 0.000000 0.000000 -0.542156 0.612488 7.452237 -17.788992 -7.727961 0.393312 -48.582736 23.364576 12.789511 -1.537585 -39.151355 3.000377 0.000000 0.000000 0.000000 -4.342443 1.539155 6.966296 24.615252 4.245001 3.343379 46.483471 -24.102570 16.681571 -7.632625 36.157560 -4.809971 0.000000 0.000000 0.000000 
7.983106 34.091446 8.503243 -179.789608 1.198682 179.779267 -0.692337 -2.803083 8.317852 -9.988715 0.287924 -29.780048 7.227279 5.212099 15.203702 -2.092482 0.512028 8.995961 0.000000 0.000000 0.000000 4.690272 -2.243528 7.089993 3.651934 11.340983 -25.765251 -5.143138 3.453229 20.926902 6.499621 2.355119 1.839421 0.000000 0.000000 0.000000 2.212293 -0.094803 -2.396113 -1.401179 -2.592178 -11.393763 -1.378410 -2.344827 8.028599 0.004014 -0.022564 -0.056129 -1.949549 0.087791 10.783639 0.684179 -0.047828 20.230185 0.000000 0.000000 0.000000 -0.530087 0.661155 7.500098 -17.641730 -8.055749 0.478030 -47.743118 23.178537 13.155100 -1.479699 -39.390138 3.067979 0.000000 0.000000 0.000000 -4.356013 1.505731 6.891103 24.371163 3.931489 3.416658 46.365079 -24.479138 16.487821 -7.778435 36.792498 -4.876506 0.000000 0.000000 0.000000 
